# xmcd
#
# Track frame offsets: 
#        150
#        12468
#        26663
#        41357
#        56091
#        68666
#        82148
#        93024
#        105242
#        117928
#        136423
#        150291
#        162170
#        174237
#        186931
#        199686
#
# Disc length: 2804 seconds
#
# Revision: 0
# Processed by: cddbd v1.4PL0 Copyright (c) Steve Scherf et al.
# Submitted via: ExactAudioCopy v0.90b4
#
DISCID=c20af210
DTITLE=Dolly Parton - Greatest Hits
DYEAR=2002
DGENRE=Country
TTITLE0=Jolene
TTITLE1=I Will Always Love You
TTITLE2=We Used to
TTITLE3=Harper Valley Pta
TTITLE4=D.I.V.O.R.C.E
TTITLE5=Here You Come Again
TTITLE6=Lovin You
TTITLE7=Bobbys Arms
TTITLE8=9 To 5
TTITLE9=Do I Ever Cross Your Mind
TTITLE10=Two Doors Down
TTITLE11=Hold Me
TTITLE12=Its My Time
TTITLE13=In the Ghetto
TTITLE14=Mama Say A Prayer
TTITLE15=Love is  Like A Butterfly
EXTD=
EXTT0=
EXTT1=
EXTT2=
EXTT3=
EXTT4=
EXTT5=
EXTT6=
EXTT7=
EXTT8=
EXTT9=
EXTT10=
EXTT11=
EXTT12=
EXTT13=
EXTT14=
EXTT15=
PLAYORDER=
